<svg width="64" height="64" viewBox="0 0 64 64" fill="none" xmlns="http://www.w3.org/2000/svg" role="img" aria-labelledby="title desc">
  <title id="title">PupWiki favicon</title>
  <desc id="desc">Orange dog paw print with blue PW monogram</desc>

  <rect width="64" height="64" rx="14" fill="#FFFDF8"/>

  <!-- Paw pads -->
  <ellipse cx="19.6" cy="16.6" rx="6.8" ry="8.1" transform="rotate(-23 19.6 16.6)" fill="#FF7A00"/>
  <ellipse cx="32" cy="12.8" rx="6.9" ry="8.4" fill="#FF7A00"/>
  <ellipse cx="44.4" cy="16.6" rx="6.8" ry="8.1" transform="rotate(23 44.4 16.6)" fill="#FF7A00"/>
  <ellipse cx="52" cy="29.2" rx="5.7" ry="6.9" transform="rotate(35 52 29.2)" fill="#FF7A00"/>
  <ellipse cx="12" cy="29.2" rx="5.7" ry="6.9" transform="rotate(-35 12 29.2)" fill="#FF7A00"/>

  <!-- Main pad -->
  <path
    d="M17.2 42.1c0-10.2 6.2-18 14.8-18s14.8 7.8 14.8 18c0 6.8-5.1 10.9-14.8 10.9s-14.8-4.1-14.8-10.9Z"
    fill="#FF7A00"
  />

  <!-- PW monogram, optically centered in main pad -->
  <g fill="#15365F">
    <path d="M22.1 46.8V31.1h6.8c3.7 0 6.1 2.1 6.1 5.3 0 3.4-2.5 5.5-6.3 5.5h-2.3v4.9h-4.3Zm4.3-8.5h2.1c1.3 0 2.1-.7 2.1-1.8 0-1.2-.8-1.8-2.1-1.8h-2.1v3.6Z"/>
    <path d="M36.2 46.8l-3.4-11.5h4.1l1.4 6.2 1.8-6.2h3.5l1.8 6.2 1.4-6.2h4.1l-3.4 11.5h-3.9l-1.8-6.1-1.8 6.1h-3.8Z"/>
  </g>
</svg>
