<svg width="288" height="88" viewBox="0 0 288 88" fill="none" xmlns="http://www.w3.org/2000/svg" role="img" aria-labelledby="title desc">
  <title id="title">PupWiki logo</title>
  <desc id="desc">PupWiki wordmark with an orange paw and navy lettering.</desc>
  <g transform="translate(8 8)">
    <g aria-hidden="true">
      <ellipse cx="21.4" cy="18.6" rx="7.6" ry="9.1" transform="rotate(-23 21.4 18.6)" fill="#FF7A00"/>
      <ellipse cx="36" cy="14.2" rx="7.8" ry="9.5" fill="#FF7A00"/>
      <ellipse cx="50.6" cy="18.6" rx="7.6" ry="9.1" transform="rotate(23 50.6 18.6)" fill="#FF7A00"/>
      <ellipse cx="59.2" cy="32.8" rx="6.5" ry="7.8" transform="rotate(35 59.2 32.8)" fill="#FF7A00"/>
      <ellipse cx="12.8" cy="32.8" rx="6.5" ry="7.8" transform="rotate(-35 12.8 32.8)" fill="#FF7A00"/>
      <path d="M19.4 47.1c0-11.5 7-20.3 16.6-20.3s16.6 8.8 16.6 20.3c0 7.7-5.7 12.2-16.6 12.2S19.4 54.8 19.4 47.1Z" fill="#FF7A00"/>
      <g fill="#15365F">
        <path d="M24.7 52.2V34.8h7.5c4.2 0 6.9 2.3 6.9 5.9 0 3.8-2.8 6.1-7.1 6.1h-2.5v5.4h-4.8Zm4.8-9.4h2.3c1.5 0 2.4-.8 2.4-2 0-1.3-.9-2-2.4-2h-2.3v4Z"/>
        <path d="M40.6 52.2l-3.8-12.8h4.6l1.5 6.9 2-6.9h3.9l2 6.9 1.5-6.9h4.6l-3.8 12.8h-4.4l-2-6.8-2 6.8h-4.1Z"/>
      </g>
    </g>
    <g transform="translate(82 16)">
      <text x="0" y="28" fill="#15365F" font-family="Inter, ui-sans-serif, system-ui, -apple-system, BlinkMacSystemFont, 'Segoe UI', sans-serif" font-size="32" font-weight="800" letter-spacing="-1.4">PupWiki</text>
      <text x="2" y="52" fill="#5D6B7A" font-family="Inter, ui-sans-serif, system-ui, -apple-system, BlinkMacSystemFont, 'Segoe UI', sans-serif" font-size="12" font-weight="600" letter-spacing="0.3">DOG PARENT GUIDE</text>
    </g>
  </g>
</svg>
